%TF.GenerationSoftware,KiCad,Pcbnew,8.0.6*%
%TF.CreationDate,2024-11-03T18:22:47-03:00*%
%TF.ProjectId,regua-pcb-fritzenlab,72656775-612d-4706-9362-2d667269747a,rev?*%
%TF.SameCoordinates,Original*%
%TF.FileFunction,Copper,L2,Bot*%
%TF.FilePolarity,Positive*%
%FSLAX46Y46*%
G04 Gerber Fmt 4.6, Leading zero omitted, Abs format (unit mm)*
G04 Created by KiCad (PCBNEW 8.0.6) date 2024-11-03 18:22:47*
%MOMM*%
%LPD*%
G01*
G04 APERTURE LIST*
%TA.AperFunction,ComponentPad*%
%ADD10R,1.700000X1.700000*%
%TD*%
%TA.AperFunction,ComponentPad*%
%ADD11O,1.700000X1.700000*%
%TD*%
%TA.AperFunction,ViaPad*%
%ADD12C,0.600000*%
%TD*%
%TA.AperFunction,Conductor*%
%ADD13C,0.500000*%
%TD*%
G04 APERTURE END LIST*
D10*
%TO.P,J1,1,Pin_1*%
%TO.N,Analog*%
X155450000Y-79100000D03*
D11*
%TO.P,J1,2,Pin_2*%
%TO.N,LED-unitario*%
X152910000Y-79100000D03*
%TO.P,J1,3,Pin_3*%
%TO.N,LED-decimal*%
X150370000Y-79100000D03*
%TO.P,J1,4,Pin_4*%
%TO.N,D10*%
X147830000Y-79100000D03*
%TO.P,J1,5,Pin_5*%
%TO.N,GND*%
X145290000Y-79100000D03*
%TO.P,J1,6,Pin_6*%
%TO.N,VCC*%
X142750000Y-79100000D03*
%TD*%
D12*
%TO.N,LED-decimal*%
X141600000Y-94200000D03*
X141600000Y-90400000D03*
%TO.N,GND*%
X146200000Y-85400000D03*
X147800000Y-101800000D03*
X98800000Y-85200000D03*
X98800000Y-92000000D03*
X130200000Y-87600000D03*
X119800000Y-94600000D03*
%TO.N,LED-unitario*%
X150400000Y-92940000D03*
X152800000Y-82400000D03*
%TO.N,VCC*%
X144400000Y-88200000D03*
X137800000Y-81600000D03*
%TO.N,D10*%
X136200000Y-90400000D03*
X127800000Y-90400000D03*
%TD*%
D13*
%TO.N,LED-decimal*%
X141600000Y-90400000D02*
X141600000Y-94200000D01*
%TO.N,LED-unitario*%
X152800000Y-82400000D02*
X152800000Y-90400000D01*
X152800000Y-90400000D02*
X150400000Y-92800000D01*
%TO.N,VCC*%
X144400000Y-88200000D02*
X137800000Y-81600000D01*
%TO.N,D10*%
X136200000Y-90400000D02*
X127800000Y-90400000D01*
%TD*%
%TA.AperFunction,Conductor*%
%TO.N,GND*%
G36*
X141666672Y-77974318D02*
G01*
X141733668Y-77994134D01*
X141779319Y-78047028D01*
X141789126Y-78116206D01*
X141759976Y-78179704D01*
X141754105Y-78185997D01*
X141711506Y-78228596D01*
X141575965Y-78422169D01*
X141575964Y-78422171D01*
X141476098Y-78636335D01*
X141476094Y-78636344D01*
X141414938Y-78864586D01*
X141414936Y-78864596D01*
X141394341Y-79099999D01*
X141394341Y-79100000D01*
X141414936Y-79335403D01*
X141414938Y-79335413D01*
X141476094Y-79563655D01*
X141476096Y-79563659D01*
X141476097Y-79563663D01*
X141555801Y-79734588D01*
X141575965Y-79777830D01*
X141575967Y-79777834D01*
X141684281Y-79932521D01*
X141711505Y-79971401D01*
X141878599Y-80138495D01*
X141975384Y-80206265D01*
X142072165Y-80274032D01*
X142072167Y-80274033D01*
X142072170Y-80274035D01*
X142286337Y-80373903D01*
X142514592Y-80435063D01*
X142691034Y-80450500D01*
X142749999Y-80455659D01*
X142750000Y-80455659D01*
X142750001Y-80455659D01*
X142808966Y-80450500D01*
X142985408Y-80435063D01*
X143213663Y-80373903D01*
X143427830Y-80274035D01*
X143621401Y-80138495D01*
X143788495Y-79971401D01*
X143918730Y-79785405D01*
X143973307Y-79741781D01*
X144042805Y-79734587D01*
X144105160Y-79766110D01*
X144121879Y-79785405D01*
X144251890Y-79971078D01*
X144418917Y-80138105D01*
X144612421Y-80273600D01*
X144826507Y-80373429D01*
X144826516Y-80373433D01*
X145040000Y-80430634D01*
X145040000Y-79533012D01*
X145097007Y-79565925D01*
X145224174Y-79600000D01*
X145355826Y-79600000D01*
X145482993Y-79565925D01*
X145540000Y-79533012D01*
X145540000Y-80430633D01*
X145753483Y-80373433D01*
X145753492Y-80373429D01*
X145967578Y-80273600D01*
X146161082Y-80138105D01*
X146328105Y-79971082D01*
X146458119Y-79785405D01*
X146512696Y-79741781D01*
X146582195Y-79734588D01*
X146644549Y-79766110D01*
X146661269Y-79785405D01*
X146791505Y-79971401D01*
X146958599Y-80138495D01*
X147055384Y-80206265D01*
X147152165Y-80274032D01*
X147152167Y-80274033D01*
X147152170Y-80274035D01*
X147366337Y-80373903D01*
X147594592Y-80435063D01*
X147771034Y-80450500D01*
X147829999Y-80455659D01*
X147830000Y-80455659D01*
X147830001Y-80455659D01*
X147888966Y-80450500D01*
X148065408Y-80435063D01*
X148293663Y-80373903D01*
X148507830Y-80274035D01*
X148701401Y-80138495D01*
X148868495Y-79971401D01*
X148998425Y-79785842D01*
X149053002Y-79742217D01*
X149122500Y-79735023D01*
X149184855Y-79766546D01*
X149201575Y-79785842D01*
X149331500Y-79971395D01*
X149331505Y-79971401D01*
X149498599Y-80138495D01*
X149595384Y-80206265D01*
X149692165Y-80274032D01*
X149692167Y-80274033D01*
X149692170Y-80274035D01*
X149906337Y-80373903D01*
X150134592Y-80435063D01*
X150311034Y-80450500D01*
X150369999Y-80455659D01*
X150370000Y-80455659D01*
X150370001Y-80455659D01*
X150428966Y-80450500D01*
X150605408Y-80435063D01*
X150833663Y-80373903D01*
X151047830Y-80274035D01*
X151241401Y-80138495D01*
X151408495Y-79971401D01*
X151538425Y-79785842D01*
X151593002Y-79742217D01*
X151662500Y-79735023D01*
X151724855Y-79766546D01*
X151741575Y-79785842D01*
X151871500Y-79971395D01*
X151871505Y-79971401D01*
X152038599Y-80138495D01*
X152135384Y-80206265D01*
X152232165Y-80274032D01*
X152232167Y-80274033D01*
X152232170Y-80274035D01*
X152446337Y-80373903D01*
X152674592Y-80435063D01*
X152851034Y-80450500D01*
X152909999Y-80455659D01*
X152910000Y-80455659D01*
X152910001Y-80455659D01*
X152968966Y-80450500D01*
X153145408Y-80435063D01*
X153373663Y-80373903D01*
X153587830Y-80274035D01*
X153781401Y-80138495D01*
X153903329Y-80016566D01*
X153964648Y-79983084D01*
X154034340Y-79988068D01*
X154090274Y-80029939D01*
X154107189Y-80060917D01*
X154156202Y-80192328D01*
X154156206Y-80192335D01*
X154242452Y-80307544D01*
X154242455Y-80307547D01*
X154357664Y-80393793D01*
X154357671Y-80393797D01*
X154492517Y-80444091D01*
X154492516Y-80444091D01*
X154499444Y-80444835D01*
X154552127Y-80450500D01*
X156347872Y-80450499D01*
X156407483Y-80444091D01*
X156542331Y-80393796D01*
X156657546Y-80307546D01*
X156743796Y-80192331D01*
X156794091Y-80057483D01*
X156800500Y-79997873D01*
X156800499Y-78202128D01*
X156794091Y-78142517D01*
X156794089Y-78142513D01*
X156793994Y-78141623D01*
X156806400Y-78072863D01*
X156854011Y-78021726D01*
X156917522Y-78004369D01*
X256076244Y-78199756D01*
X256143245Y-78219573D01*
X256188896Y-78272467D01*
X256200000Y-78323756D01*
X256200000Y-104876122D01*
X256180315Y-104943161D01*
X256127511Y-104988916D01*
X256076122Y-105000122D01*
X53324122Y-105199877D01*
X53257063Y-105180258D01*
X53211256Y-105127500D01*
X53200000Y-105075877D01*
X53200000Y-90399996D01*
X126994435Y-90399996D01*
X126994435Y-90400003D01*
X127014630Y-90579249D01*
X127014631Y-90579254D01*
X127074211Y-90749523D01*
X127155199Y-90878413D01*
X127170184Y-90902262D01*
X127297738Y-91029816D01*
X127450478Y-91125789D01*
X127521098Y-91150500D01*
X127620745Y-91185368D01*
X127620750Y-91185369D01*
X127799996Y-91205565D01*
X127800000Y-91205565D01*
X127800004Y-91205565D01*
X127979249Y-91185369D01*
X127979252Y-91185368D01*
X127979255Y-91185368D01*
X128059017Y-91157457D01*
X128099972Y-91150500D01*
X135900028Y-91150500D01*
X135940983Y-91157458D01*
X136020745Y-91185368D01*
X136020750Y-91185369D01*
X136199996Y-91205565D01*
X136200000Y-91205565D01*
X136200004Y-91205565D01*
X136379249Y-91185369D01*
X136379252Y-91185368D01*
X136379255Y-91185368D01*
X136549522Y-91125789D01*
X136702262Y-91029816D01*
X136829816Y-90902262D01*
X136925789Y-90749522D01*
X136985368Y-90579255D01*
X136985369Y-90579249D01*
X137005565Y-90400003D01*
X137005565Y-90399996D01*
X140794435Y-90399996D01*
X140794435Y-90400003D01*
X140814630Y-90579249D01*
X140814631Y-90579254D01*
X140842542Y-90659017D01*
X140849500Y-90699972D01*
X140849500Y-93900028D01*
X140842542Y-93940982D01*
X140814631Y-94020747D01*
X140794435Y-94199996D01*
X140794435Y-94200003D01*
X140814630Y-94379249D01*
X140814631Y-94379254D01*
X140874211Y-94549523D01*
X140970184Y-94702262D01*
X141097738Y-94829816D01*
X141250478Y-94925789D01*
X141420745Y-94985368D01*
X141420750Y-94985369D01*
X141599996Y-95005565D01*
X141600000Y-95005565D01*
X141600004Y-95005565D01*
X141779249Y-94985369D01*
X141779252Y-94985368D01*
X141779255Y-94985368D01*
X141949522Y-94925789D01*
X142102262Y-94829816D01*
X142229816Y-94702262D01*
X142325789Y-94549522D01*
X142385368Y-94379255D01*
X142405565Y-94200000D01*
X142385368Y-94020745D01*
X142357458Y-93940982D01*
X142350500Y-93900028D01*
X142350500Y-92939996D01*
X149594435Y-92939996D01*
X149594435Y-92940003D01*
X149614630Y-93119249D01*
X149614631Y-93119254D01*
X149674211Y-93289523D01*
X149770184Y-93442262D01*
X149897738Y-93569816D01*
X150050478Y-93665789D01*
X150220745Y-93725368D01*
X150220750Y-93725369D01*
X150399996Y-93745565D01*
X150400000Y-93745565D01*
X150400004Y-93745565D01*
X150579249Y-93725369D01*
X150579252Y-93725368D01*
X150579255Y-93725368D01*
X150749522Y-93665789D01*
X150902262Y-93569816D01*
X151029816Y-93442262D01*
X151125789Y-93289522D01*
X151185368Y-93119255D01*
X151186001Y-93113629D01*
X151213061Y-93049217D01*
X151221531Y-93039835D01*
X153382952Y-90878415D01*
X153412275Y-90834530D01*
X153465084Y-90755495D01*
X153488518Y-90698920D01*
X153521659Y-90618912D01*
X153550500Y-90473917D01*
X153550500Y-90326082D01*
X153550500Y-82699972D01*
X153557458Y-82659017D01*
X153585368Y-82579254D01*
X153585369Y-82579249D01*
X153605565Y-82400003D01*
X153605565Y-82399996D01*
X153585369Y-82220750D01*
X153585368Y-82220745D01*
X153525788Y-82050476D01*
X153429815Y-81897737D01*
X153302262Y-81770184D01*
X153149523Y-81674211D01*
X152979254Y-81614631D01*
X152979249Y-81614630D01*
X152800004Y-81594435D01*
X152799996Y-81594435D01*
X152620750Y-81614630D01*
X152620745Y-81614631D01*
X152450476Y-81674211D01*
X152297737Y-81770184D01*
X152170184Y-81897737D01*
X152074211Y-82050476D01*
X152014631Y-82220745D01*
X152014630Y-82220750D01*
X151994435Y-82399996D01*
X151994435Y-82400003D01*
X152014630Y-82579249D01*
X152014631Y-82579254D01*
X152042542Y-82659017D01*
X152049500Y-82699972D01*
X152049500Y-90037769D01*
X152029815Y-90104808D01*
X152013181Y-90125450D01*
X149817052Y-92321578D01*
X149817052Y-92321579D01*
X149817049Y-92321582D01*
X149817048Y-92321584D01*
X149776400Y-92382418D01*
X149734918Y-92444502D01*
X149734914Y-92444510D01*
X149677275Y-92583663D01*
X149674445Y-92589988D01*
X149674213Y-92590468D01*
X149614633Y-92760737D01*
X149614630Y-92760750D01*
X149594435Y-92939996D01*
X142350500Y-92939996D01*
X142350500Y-90699972D01*
X142357458Y-90659017D01*
X142385368Y-90579254D01*
X142385369Y-90579249D01*
X142405565Y-90400003D01*
X142405565Y-90399996D01*
X142385369Y-90220750D01*
X142385368Y-90220745D01*
X142344800Y-90104808D01*
X142325789Y-90050478D01*
X142317803Y-90037769D01*
X142229815Y-89897737D01*
X142102262Y-89770184D01*
X141949523Y-89674211D01*
X141779254Y-89614631D01*
X141779249Y-89614630D01*
X141600004Y-89594435D01*
X141599996Y-89594435D01*
X141420750Y-89614630D01*
X141420745Y-89614631D01*
X141250476Y-89674211D01*
X141097737Y-89770184D01*
X140970184Y-89897737D01*
X140874211Y-90050476D01*
X140814631Y-90220745D01*
X140814630Y-90220750D01*
X140794435Y-90399996D01*
X137005565Y-90399996D01*
X136985369Y-90220750D01*
X136985368Y-90220745D01*
X136944800Y-90104808D01*
X136925789Y-90050478D01*
X136917803Y-90037769D01*
X136829815Y-89897737D01*
X136702262Y-89770184D01*
X136549523Y-89674211D01*
X136379254Y-89614631D01*
X136379249Y-89614630D01*
X136200004Y-89594435D01*
X136199996Y-89594435D01*
X136020750Y-89614630D01*
X136020745Y-89614631D01*
X135940983Y-89642542D01*
X135900028Y-89649500D01*
X128099972Y-89649500D01*
X128059017Y-89642542D01*
X127979254Y-89614631D01*
X127979249Y-89614630D01*
X127800004Y-89594435D01*
X127799996Y-89594435D01*
X127620750Y-89614630D01*
X127620745Y-89614631D01*
X127450476Y-89674211D01*
X127297737Y-89770184D01*
X127170184Y-89897737D01*
X127074211Y-90050476D01*
X127014631Y-90220745D01*
X127014630Y-90220750D01*
X126994435Y-90399996D01*
X53200000Y-90399996D01*
X53200000Y-81599996D01*
X136994435Y-81599996D01*
X136994435Y-81600003D01*
X137014630Y-81779249D01*
X137014631Y-81779254D01*
X137074211Y-81949523D01*
X137137646Y-82050478D01*
X137170184Y-82102262D01*
X137297738Y-82229816D01*
X137450478Y-82325789D01*
X137456754Y-82328811D01*
X137455867Y-82330651D01*
X137491940Y-82353307D01*
X143646692Y-88508059D01*
X143669358Y-88544125D01*
X143671188Y-88543244D01*
X143674209Y-88549518D01*
X143674211Y-88549522D01*
X143770184Y-88702262D01*
X143897738Y-88829816D01*
X144050478Y-88925789D01*
X144220745Y-88985368D01*
X144220750Y-88985369D01*
X144399996Y-89005565D01*
X144400000Y-89005565D01*
X144400004Y-89005565D01*
X144579249Y-88985369D01*
X144579252Y-88985368D01*
X144579255Y-88985368D01*
X144749522Y-88925789D01*
X144902262Y-88829816D01*
X145029816Y-88702262D01*
X145125789Y-88549522D01*
X145185368Y-88379255D01*
X145205565Y-88200000D01*
X145185368Y-88020745D01*
X145125789Y-87850478D01*
X145029816Y-87697738D01*
X144902262Y-87570184D01*
X144749522Y-87474211D01*
X144749518Y-87474209D01*
X144743244Y-87471188D01*
X144744125Y-87469358D01*
X144708059Y-87446692D01*
X138553307Y-81291940D01*
X138530651Y-81255867D01*
X138528811Y-81256754D01*
X138525789Y-81250478D01*
X138429815Y-81097737D01*
X138302262Y-80970184D01*
X138149523Y-80874211D01*
X137979254Y-80814631D01*
X137979249Y-80814630D01*
X137800004Y-80794435D01*
X137799996Y-80794435D01*
X137620750Y-80814630D01*
X137620745Y-80814631D01*
X137450476Y-80874211D01*
X137297737Y-80970184D01*
X137170184Y-81097737D01*
X137074211Y-81250476D01*
X137014631Y-81420745D01*
X137014630Y-81420750D01*
X136994435Y-81599996D01*
X53200000Y-81599996D01*
X53200000Y-77924244D01*
X53219685Y-77857205D01*
X53272489Y-77811450D01*
X53324240Y-77800244D01*
X141666672Y-77974318D01*
G37*
%TD.AperFunction*%
%TD*%
M02*
