M48
; DRILL file {KiCad 8.0.6} date 2024-11-01T21:04:58-0300
; FORMAT={-:-/ absolute / inch / decimal}
; #@! TF.CreationDate,2024-11-01T21:04:58-03:00
; #@! TF.GenerationSoftware,Kicad,Pcbnew,8.0.6
; #@! TF.FileFunction,Plated,1,2,PTH
FMAT,2
INCH
; #@! TA.AperFunction,Plated,PTH,ViaDrill
T1C0.0118
; #@! TA.AperFunction,Plated,PTH,ComponentDrill
T2C0.0394
%
G90
G05
T1
X3.8898Y-3.3543
X3.8898Y-3.622
X4.7165Y-3.7244
X5.0315Y-3.5591
X5.126Y-3.4488
X5.3622Y-3.5591
X5.4252Y-3.2126
X5.5748Y-3.5591
X5.5748Y-3.7087
X5.685Y-3.4724
X5.7559Y-3.3622
X5.8189Y-4.0079
X5.9213Y-3.6591
X6.0157Y-3.2441
T2
X5.6201Y-3.1142
X5.7201Y-3.1142
X5.8201Y-3.1142
X5.9201Y-3.1142
X6.0201Y-3.1142
X6.1201Y-3.1142
M30
